<svg xmlns="http://www.w3.org/2000/svg" version="1.1" xmlns:xlink="http://www.w3.org/1999/xlink" xmlns:svgjs="http://svgjs.dev/svgjs" width="1500" height="515" viewBox="0 0 1500 515"><g transform="matrix(1,0,0,1,-0.9090909090909918,-0.8369218565641745)"><svg viewBox="0 0 396 136" data-background-color="#ffffff" preserveAspectRatio="xMidYMid meet" height="515" width="1500" xmlns="http://www.w3.org/2000/svg" xmlns:xlink="http://www.w3.org/1999/xlink"><g id="tight-bounds" transform="matrix(1,0,0,1,0.2400000000000091,0.22101237377228244)"><svg viewBox="0 0 395.52 135.55797525245546" height="135.55797525245546" width="395.52"><g><svg viewBox="0 0 666.749531038083 228.51743635731884" height="135.55797525245546" width="395.52"><g><rect width="6.849714596159483" height="142.75053547084437" x="413.4511900423023" y="42.88345044323724" fill="#ffdf00" opacity="1" stroke-width="0" stroke="transparent" fill-opacity="1" class="rect-yte-0" data-fill-palette-color="primary" rx="1%" id="yte-0" data-palette-color="#ffdf00"></rect></g><g transform="matrix(1,0,0,1,0,54.77932839914094)"><svg viewBox="0 0 395.52 118.95877955903697" height="118.95877955903697" width="395.52"><g id="textblocktransform"><svg viewBox="0 0 395.52 118.95877955903697" height="118.95877955903697" width="395.52" id="textblock"><g><svg viewBox="0 0 395.52 75.95515868746637" height="75.95515868746637" width="395.52"><g transform="matrix(1,0,0,1,0,0)"><svg width="395.52" viewBox="2.2 -23.55 185.89000000000001 35.7" height="75.95515868746637" data-palette-color="#ffdf00"><path d="M14.4 0.5Q10.3 0.5 7.55-1.13 4.8-2.75 3.5-5.48 2.2-8.2 2.2-11.45L2.2-11.45Q2.2-15.1 3.73-17.85 5.25-20.6 7.95-22.08 10.65-23.55 14.05-23.55L14.05-23.55Q19.35-23.55 21.93-20.63 24.5-17.7 24.5-12.4L24.5-12.4Q24.5-11.05 24.35-9.6L24.35-9.6 7.85-9.6Q8.4-6.55 10.03-5.2 11.65-3.85 14.55-3.85L14.55-3.85Q16.95-3.85 18.5-4.25 20.05-4.65 21.35-5.35L21.35-5.35 23-1.5Q21.75-0.7 19.6-0.1 17.45 0.5 14.4 0.5L14.4 0.5ZM7.85-13.35L19.25-13.35Q19.3-16.45 17.9-17.73 16.5-19 13.9-19L13.9-19Q8.65-19 7.85-13.35L7.85-13.35ZM30.15 0L30.15-22.95 35.45-22.95 35.5-18.75Q36.45-20.85 38.5-22.2 40.55-23.55 43.3-23.55L43.3-23.55Q46.85-23.55 48.75-22.08 50.65-20.6 51.3-17.95 51.95-15.3 51.95-11.05L51.95-11.05 51.95 0 46.55 0 46.55-10.9Q46.55-15.25 45.7-17.18 44.85-19.1 42.2-19.1L42.2-19.1Q40.7-19.1 39.15-18.18 37.6-17.25 36.57-15.5 35.55-13.75 35.55-11.4L35.55-11.4 35.55 0 30.15 0ZM69.05 0.5Q65.94 0.5 63.32-0.98 60.7-2.45 59.12-5.18 57.55-7.9 57.55-11.55L57.55-11.55Q57.55-15.15 58.92-17.85 60.3-20.55 62.84-22.05 65.39-23.55 68.84-23.55L68.84-23.55Q70.84-23.55 72.59-22.85 74.34-22.15 75.55-21.13 76.75-20.1 77.14-19.1L77.14-19.1 77.25-22.95 82.39-22.95 82.39 0 77.3 0 77.19-4.05Q76.34-2.25 74.09-0.88 71.84 0.5 69.05 0.5L69.05 0.5ZM69.94-4Q72.8-4 74.75-5.98 76.69-7.95 76.69-11.15L76.69-11.15 76.69-11.5Q76.69-13.65 75.8-15.35 74.89-17.05 73.34-18 71.8-18.95 69.94-18.95L69.94-18.95Q66.75-18.95 65-16.88 63.24-14.8 63.24-11.5L63.24-11.5Q63.24-8.15 64.97-6.08 66.69-4 69.94-4L69.94-4ZM89.64 0L89.64-22.95 95.04-22.95 95.04-18.8Q96.14-21.15 98.27-22.35 100.39-23.55 103.14-23.55L103.14-23.55Q109.29-23.5 110.69-19.3L110.69-19.3Q111.79-21.25 113.99-22.4 116.19-23.55 118.64-23.55L118.64-23.55Q122.24-23.55 124.09-22.18 125.94-20.8 126.57-18.28 127.19-15.75 127.19-11.5L127.19-11.5 127.19 0 121.74 0 121.74-11.55Q121.74-15.6 120.92-17.35 120.09-19.1 117.74-19.1L117.74-19.1Q114.59-19.1 112.97-16.98 111.34-14.85 111.34-11.4L111.34-11.4 111.34 0 105.94 0 105.94-12.35Q105.94-15 105.74-16.3 105.54-17.6 104.64-18.35 103.74-19.1 101.74-19.1L101.74-19.1Q99.99-19.1 98.47-18.05 96.94-17 96.02-15.23 95.09-13.45 95.09-11.4L95.09-11.4 95.09 0 89.64 0ZM134.19 12.15L134.19-22.95 139.39-22.95 139.39-18.7Q142.14-23.55 147.99-23.55L147.99-23.55Q152.84-23.55 155.84-20.48 158.84-17.4 158.84-11.6L158.84-11.6Q158.84-8 157.37-5.25 155.89-2.5 153.37-1 150.84 0.5 147.74 0.5L147.74 0.5Q144.84 0.5 142.72-0.53 140.59-1.55 139.39-3.45L139.39-3.45 139.44 12.15 134.19 12.15ZM146.49-4.05Q149.74-4.05 151.49-6.13 153.24-8.2 153.24-11.45L153.24-11.45Q153.24-14.85 151.52-16.88 149.79-18.9 146.49-18.9L146.49-18.9Q144.69-18.9 143.12-18.03 141.54-17.15 140.62-15.53 139.69-13.9 139.69-11.75L139.69-11.75 139.69-11.4Q139.69-9.25 140.62-7.58 141.54-5.9 143.09-4.98 144.64-4.05 146.49-4.05L146.49-4.05ZM174.74 0.5Q171.64 0.5 169.01-0.98 166.39-2.45 164.81-5.18 163.24-7.9 163.24-11.55L163.24-11.55Q163.24-15.15 164.61-17.85 165.99-20.55 168.54-22.05 171.09-23.55 174.54-23.55L174.54-23.55Q176.54-23.55 178.29-22.85 180.04-22.15 181.24-21.13 182.44-20.1 182.84-19.1L182.84-19.1 182.94-22.95 188.09-22.95 188.09 0 182.99 0 182.89-4.05Q182.04-2.25 179.79-0.88 177.54 0.5 174.74 0.5L174.74 0.5ZM175.64-4Q178.49-4 180.44-5.98 182.39-7.95 182.39-11.15L182.39-11.15 182.39-11.5Q182.39-13.65 181.49-15.35 180.59-17.05 179.04-18 177.49-18.95 175.64-18.95L175.64-18.95Q172.44-18.95 170.69-16.88 168.94-14.8 168.94-11.5L168.94-11.5Q168.94-8.15 170.66-6.08 172.39-4 175.64-4L175.64-4Z" opacity="1" transform="matrix(1,0,0,1,0,0)" fill="#ffdf00" class="wordmark-text-0" data-fill-palette-color="primary" id="text-0"></path></svg></g></svg></g><g transform="matrix(1,0,0,1,163.310208,93.88634872976868)"><svg viewBox="0 0 232.209792 25.072430829268296" height="25.072430829268296" width="232.209792"><g transform="matrix(1,0,0,1,0,0)"><svg width="232.209792" viewBox="2 -37.35 350.52 37.85" height="25.072430829268296" data-palette-color="#ca3433"><path d="M5.7 0L5.7-18.65 2-18.65 2-22.95 5.7-22.95 5.7-27.9Q5.7-32.4 7.88-34.88 10.05-37.35 14.25-37.35L14.25-37.35Q15.95-37.35 18.1-36.4L18.1-36.4 17.05-31.3Q16.7-31.7 15.98-32.08 15.25-32.45 14.4-32.45L14.4-32.45Q11.05-32.45 11-28.1L11-28.1 11-22.95 16.4-22.95 16.4-18.65 11-18.65 11 0 5.7 0ZM32.35 0.5Q28.8 0.5 26.05-1.1 23.3-2.7 21.8-5.45 20.3-8.2 20.3-11.55L20.3-11.55Q20.3-14.85 21.77-17.6 23.25-20.35 26-21.95 28.75-23.55 32.35-23.55L32.35-23.55Q35.95-23.55 38.67-21.95 41.4-20.35 42.87-17.6 44.35-14.85 44.35-11.55L44.35-11.55Q44.35-8.2 42.85-5.45 41.35-2.7 38.62-1.1 35.9 0.5 32.35 0.5L32.35 0.5ZM32.5-3.9Q35.4-3.9 37.07-6.05 38.75-8.2 38.75-11.45L38.75-11.45Q38.75-14.7 36.95-16.93 35.15-19.15 32.2-19.15L32.2-19.15Q29.35-19.15 27.62-16.95 25.9-14.75 25.9-11.45L25.9-11.45Q25.9-8.25 27.75-6.08 29.6-3.9 32.5-3.9L32.5-3.9ZM60.8 0.5Q57.25 0.5 54.5-1.1 51.75-2.7 50.25-5.45 48.75-8.2 48.75-11.55L48.75-11.55Q48.75-14.85 50.22-17.6 51.7-20.35 54.45-21.95 57.2-23.55 60.8-23.55L60.8-23.55Q64.4-23.55 67.12-21.95 69.84-20.35 71.32-17.6 72.8-14.85 72.8-11.55L72.8-11.55Q72.8-8.2 71.3-5.45 69.8-2.7 67.07-1.1 64.34 0.5 60.8 0.5L60.8 0.5ZM60.95-3.9Q63.84-3.9 65.52-6.05 67.2-8.2 67.2-11.45L67.2-11.45Q67.2-14.7 65.4-16.93 63.59-19.15 60.65-19.15L60.65-19.15Q57.8-19.15 56.07-16.95 54.34-14.75 54.34-11.45L54.34-11.45Q54.34-8.25 56.2-6.08 58.05-3.9 60.95-3.9L60.95-3.9ZM88.69 0.5Q85.59 0.5 82.97-0.98 80.34-2.45 78.77-5.18 77.19-7.9 77.19-11.55L77.19-11.55Q77.19-17 80.24-20.28 83.29-23.55 88.49-23.55L88.49-23.55Q91.39-23.55 93.79-22.13 96.19-20.7 97.04-18.7L97.04-18.7 96.79-22.6 96.79-36.75 102.09-36.75 102.09 0 96.94 0 96.84-4.05Q95.99-2.25 93.74-0.88 91.49 0.5 88.69 0.5L88.69 0.5ZM89.59-4.05Q92.44-4.05 94.39-6.03 96.34-8 96.34-11.2L96.34-11.2 96.34-11.55Q96.34-13.7 95.44-15.4 94.54-17.1 92.99-18.05 91.44-19 89.59-19L89.59-19Q86.39-19 84.64-16.93 82.89-14.85 82.89-11.55L82.89-11.55Q82.89-8.2 84.62-6.13 86.34-4.05 89.59-4.05L89.59-4.05ZM129.39 0.5Q126.99 0.5 124.41-0.13 121.84-0.75 120.74-1.6L120.74-1.6 122.54-5.85Q125.54-3.75 129.39-3.75L129.39-3.75Q133.24-3.75 133.24-6L133.24-6Q133.24-7 132.44-7.55 131.64-8.1 129.59-8.85L129.59-8.85 127.69-9.55Q124.69-10.75 122.94-12.43 121.19-14.1 121.19-16.85L121.19-16.85Q121.19-20 123.66-21.78 126.14-23.55 130.29-23.55L130.29-23.55Q132.34-23.55 134.31-23.1 136.29-22.65 137.34-21.95L137.34-21.95 135.39-17.65Q134.74-18.3 133.31-18.78 131.89-19.25 130.14-19.25L130.14-19.25Q126.59-19.25 126.59-17.1L126.59-17.1Q126.59-15.9 127.54-15.28 128.49-14.65 130.64-13.9L130.64-13.9Q130.84-13.85 132.19-13.35L132.19-13.35Q135.39-12.1 136.94-10.5 138.49-8.9 138.49-6.4L138.49-6.4Q138.49-3 135.91-1.25 133.34 0.5 129.39 0.5L129.39 0.5ZM154.94 0.5Q150.84 0.5 148.09-1.13 145.34-2.75 144.04-5.48 142.74-8.2 142.74-11.45L142.74-11.45Q142.74-15.1 144.26-17.85 145.79-20.6 148.49-22.08 151.19-23.55 154.59-23.55L154.59-23.55Q159.89-23.55 162.46-20.63 165.04-17.7 165.04-12.4L165.04-12.4Q165.04-11.05 164.89-9.6L164.89-9.6 148.39-9.6Q148.94-6.55 150.56-5.2 152.19-3.85 155.09-3.85L155.09-3.85Q157.49-3.85 159.04-4.25 160.59-4.65 161.89-5.35L161.89-5.35 163.54-1.5Q162.29-0.7 160.14-0.1 157.99 0.5 154.94 0.5L154.94 0.5ZM148.39-13.35L159.79-13.35Q159.84-16.45 158.44-17.73 157.04-19 154.44-19L154.44-19Q149.19-19 148.39-13.35L148.39-13.35ZM170.53 0L170.53-22.95 175.93-22.95 175.93-18.45Q176.73-20.75 178.53-22.15 180.33-23.55 182.63-23.55L182.63-23.55Q184.23-23.55 184.83-23.25L184.83-23.25 184.08-17.8Q183.63-18.1 182.13-18.1L182.13-18.1Q179.78-18.1 177.86-16.6 175.93-15.1 175.93-11.8L175.93-11.8 175.93 0 170.53 0ZM197.08 0L184.98-22.95 191.13-22.95 196.08-12.6 197.68-8.45 199.28-12.6 204.18-22.95 210.18-22.95 198.13 0 197.08 0ZM223.88 0.5Q219.78 0.5 217.03-1.13 214.28-2.75 212.98-5.48 211.68-8.2 211.68-11.45L211.68-11.45Q211.68-15.1 213.2-17.85 214.73-20.6 217.43-22.08 220.13-23.55 223.53-23.55L223.53-23.55Q228.83-23.55 231.4-20.63 233.98-17.7 233.98-12.4L233.98-12.4Q233.98-11.05 233.83-9.6L233.83-9.6 217.33-9.6Q217.88-6.55 219.5-5.2 221.13-3.85 224.03-3.85L224.03-3.85Q226.43-3.85 227.98-4.25 229.53-4.65 230.83-5.35L230.83-5.35 232.48-1.5Q231.23-0.7 229.08-0.1 226.93 0.5 223.88 0.5L223.88 0.5ZM217.33-13.35L228.73-13.35Q228.78-16.45 227.38-17.73 225.98-19 223.38-19L223.38-19Q218.13-19 217.33-13.35L217.33-13.35ZM249.78 0.5Q246.68 0.5 244.05-0.98 241.43-2.45 239.85-5.18 238.28-7.9 238.28-11.55L238.28-11.55Q238.28-17 241.33-20.28 244.38-23.55 249.58-23.55L249.58-23.55Q252.48-23.55 254.88-22.13 257.28-20.7 258.13-18.7L258.13-18.7 257.88-22.6 257.88-36.75 263.18-36.75 263.18 0 258.03 0 257.93-4.05Q257.08-2.25 254.83-0.88 252.58 0.5 249.78 0.5L249.78 0.5ZM250.68-4.05Q253.53-4.05 255.48-6.03 257.43-8 257.43-11.2L257.43-11.2 257.43-11.55Q257.43-13.7 256.53-15.4 255.63-17.1 254.08-18.05 252.53-19 250.68-19L250.68-19Q247.48-19 245.73-16.93 243.98-14.85 243.98-11.55L243.98-11.55Q243.98-8.2 245.7-6.13 247.43-4.05 250.68-4.05L250.68-4.05ZM282.82 0L282.82-36.75 288.07-36.75 288.07-22.95 287.87-18.7Q288.82-20.8 290.92-22.18 293.02-23.55 295.82-23.55L295.82-23.55Q299.37-23.55 301.27-22.08 303.17-20.6 303.82-17.95 304.47-15.3 304.47-11.05L304.47-11.05 304.47 0 299.12 0 299.12-11.1Q299.12-14 298.8-15.65 298.47-17.3 297.5-18.15 296.52-19 294.67-19L294.67-19Q293.17-19 291.65-18.1 290.12-17.2 289.12-15.48 288.12-13.75 288.12-11.4L288.12-11.4 288.12 0 282.82 0ZM322.02 0.5Q318.47 0.5 315.72-1.1 312.97-2.7 311.47-5.45 309.97-8.2 309.97-11.55L309.97-11.55Q309.97-14.85 311.44-17.6 312.92-20.35 315.67-21.95 318.42-23.55 322.02-23.55L322.02-23.55Q325.62-23.55 328.34-21.95 331.07-20.35 332.54-17.6 334.02-14.85 334.02-11.55L334.02-11.55Q334.02-8.2 332.52-5.45 331.02-2.7 328.29-1.1 325.57 0.5 322.02 0.5L322.02 0.5ZM322.17-3.9Q325.07-3.9 326.74-6.05 328.42-8.2 328.42-11.45L328.42-11.45Q328.42-14.7 326.62-16.93 324.82-19.15 321.87-19.15L321.87-19.15Q319.02-19.15 317.29-16.95 315.57-14.75 315.57-11.45L315.57-11.45Q315.57-8.25 317.42-6.08 319.27-3.9 322.17-3.9L322.17-3.9ZM341.77 0L341.77-18.55 337.72-18.55 337.72-22.95 341.77-22.95 341.77-32.3 347.22-33.5 347.22-22.95 352.52-22.95 352.52-18.55 347.22-18.55 347.22 0 341.77 0Z" opacity="1" transform="matrix(1,0,0,1,0,0)" fill="#ca3433" class="slogan-text-1" data-fill-palette-color="secondary" id="text-1"></path></svg></g></svg></g></svg></g></svg></g><g transform="matrix(1,0,0,1,438.2320946807641,0)"><svg viewBox="0 0 228.51743635731884 228.51743635731884" height="228.51743635731884" width="228.51743635731884"><g><svg xmlns="http://www.w3.org/2000/svg" xmlns:xlink="http://www.w3.org/1999/xlink" version="1.1" x="0" y="0" viewBox="0 0 100 100" enable-background="new 0 0 100 100" xml:space="preserve" height="228.51743635731884" width="228.51743635731884" class="icon-icon-0" data-fill-palette-color="accent" id="icon-0"><g fill="#ed2647" data-fill-palette-color="accent"></g><g fill="#ed2647" data-fill-palette-color="accent"><g fill="#ed2647" data-fill-palette-color="accent"><path d="M40.004 62.747H36.161A0.286 0.286 0 0 0 35.876 63.032V64.319C35.876 64.476 36.005 64.604 36.161 64.604H40.004A0.287 0.287 0 0 0 40.291 64.318V63.032A0.286 0.286 0 0 0 40.004 62.747M44.126 59.943A0.285 0.285 0 0 0 43.723 59.942L42.812 60.852A0.29 0.29 0 0 0 42.812 61.256L45.53 63.973A0.286 0.286 0 0 0 45.934 63.974L46.845 63.064A0.286 0.286 0 0 0 46.844 62.661zM43.526 63.813A0.285 0.285 0 0 0 43.123 63.814L40.405 66.531A0.285 0.285 0 0 0 40.405 66.934L41.314 67.844A0.286 0.286 0 0 0 41.718 67.844L44.435 65.127A0.286 0.286 0 0 0 44.436 64.723zM33.871 63.157H32.584A0.286 0.286 0 0 0 32.3 63.444V67.287C32.3 67.444 32.428 67.572 32.585 67.572H33.872A0.286 0.286 0 0 0 34.157 67.287V63.444A0.287 0.287 0 0 0 33.871 63.157M53.403 65.94H49.56A0.286 0.286 0 0 0 49.273 66.224V67.511C49.273 67.669 49.402 67.797 49.56 67.797H53.403A0.286 0.286 0 0 0 53.688 67.512V66.225A0.285 0.285 0 0 0 53.403 65.94M25.238 22.333L73.355 27.003A0.46 0.46 0 0 0 73.855 26.592L73.924 25.885A0.46 0.46 0 0 0 73.512 25.385L25.395 20.715A0.457 0.457 0 0 0 24.897 21.127L24.828 21.834C24.803 22.084 24.988 22.309 25.238 22.333M25.088 30.109H54.536A2.9 2.9 0 0 0 54.195 31.461C54.195 32.556 54.794 33.503 55.676 34.02A2.96 2.96 0 0 0 54.195 36.579C54.195 37.675 54.794 38.621 55.676 39.138A2.96 2.96 0 0 0 54.198 41.656H54.195L54.197 41.676 54.195 41.697C54.195 41.731 54.204 41.763 54.205 41.797 54.21 41.908 54.219 42.018 54.237 42.125 54.253 42.234 54.275 42.339 54.303 42.443L54.304 42.446C54.504 43.205 54.995 43.837 55.654 44.228A2.96 2.96 0 0 0 54.196 46.772C54.196 47.868 54.795 48.814 55.677 49.331A2.96 2.96 0 0 0 54.196 51.89 2.966 2.966 0 0 0 56.934 54.841L57.25 54.832H57.777A0.46 0.46 0 0 0 58.235 54.374V53.648A0.46 0.46 0 0 0 57.777 53.19H57.248L57.234 53.192C57.182 53.196 57.051 53.203 57.06 53.204A1.32 1.32 0 0 1 55.838 51.89C55.838 51.42 56.088 50.993 56.508 50.748A1.642 1.642 0 0 0 56.507 47.915 1.32 1.32 0 0 1 55.838 46.773C55.838 46.303 56.088 45.876 56.507 45.631A1.643 1.643 0 0 0 56.507 42.797 1.32 1.32 0 0 1 55.841 41.676C55.848 41.215 56.094 40.796 56.508 40.554A1.642 1.642 0 0 0 56.507 37.721 1.32 1.32 0 0 1 55.838 36.579C55.838 36.109 56.088 35.682 56.507 35.437A1.643 1.643 0 0 0 56.507 32.603 1.32 1.32 0 0 1 55.838 31.461C55.838 30.768 56.365 30.204 57.064 30.146L57.611 30.15V30.142H58.47A2.9 2.9 0 0 0 58.145 31.461C58.145 32.556 58.744 33.503 59.625 34.02A2.96 2.96 0 0 0 58.145 36.579C58.145 37.675 58.744 38.621 59.625 39.138A2.97 2.97 0 0 0 58.147 41.656H58.144L58.146 41.676 58.144 41.697C58.144 41.731 58.153 41.763 58.154 41.797 58.159 41.908 58.168 42.018 58.186 42.125 58.202 42.234 58.224 42.339 58.252 42.443L58.253 42.446C58.453 43.205 58.943 43.837 59.603 44.228A2.96 2.96 0 0 0 58.145 46.772C58.145 47.868 58.744 48.814 59.625 49.331A2.96 2.96 0 0 0 58.145 51.89 2.965 2.965 0 0 0 60.883 54.841L61.199 54.832H61.725A0.46 0.46 0 0 0 62.183 54.374V53.648A0.46 0.46 0 0 0 61.725 53.19H61.196L61.182 53.192C61.13 53.196 60.999 53.203 61.008 53.204A1.32 1.32 0 0 1 59.786 51.89C59.786 51.42 60.036 50.993 60.456 50.748A1.642 1.642 0 0 0 60.455 47.915 1.32 1.32 0 0 1 59.786 46.773C59.786 46.303 60.036 45.876 60.455 45.631A1.643 1.643 0 0 0 60.455 42.797 1.32 1.32 0 0 1 59.789 41.676C59.796 41.215 60.043 40.796 60.456 40.554A1.642 1.642 0 0 0 60.455 37.721 1.32 1.32 0 0 1 59.786 36.579C59.786 36.109 60.036 35.682 60.455 35.437A1.643 1.643 0 0 0 60.455 32.603 1.32 1.32 0 0 1 59.786 31.461C59.786 30.768 60.313 30.204 61.012 30.146L61.559 30.15V30.142H62.417A2.9 2.9 0 0 0 62.093 31.461C62.093 32.556 62.692 33.503 63.574 34.02A2.96 2.96 0 0 0 62.093 36.579C62.093 37.675 62.692 38.621 63.574 39.138A2.96 2.96 0 0 0 62.096 41.656H62.093L62.095 41.676 62.093 41.697C62.093 41.731 62.102 41.763 62.103 41.797 62.108 41.908 62.117 42.018 62.135 42.125 62.151 42.234 62.173 42.339 62.201 42.443L62.202 42.446C62.402 43.205 62.893 43.837 63.552 44.228A2.96 2.96 0 0 0 62.094 46.772C62.094 47.868 62.693 48.814 63.575 49.331A2.96 2.96 0 0 0 62.094 51.89 2.966 2.966 0 0 0 64.832 54.841L65.148 54.832H65.674A0.46 0.46 0 0 0 66.132 54.374V53.648A0.46 0.46 0 0 0 65.674 53.19H65.145L65.131 53.192C65.079 53.196 64.948 53.203 64.957 53.204A1.32 1.32 0 0 1 63.735 51.89C63.735 51.42 63.985 50.993 64.405 50.748A1.644 1.644 0 0 0 64.404 47.915 1.32 1.32 0 0 1 63.735 46.773C63.735 46.303 63.985 45.876 64.404 45.631A1.645 1.645 0 0 0 64.404 42.797 1.32 1.32 0 0 1 63.738 41.676C63.745 41.215 63.992 40.796 64.405 40.554A1.644 1.644 0 0 0 64.404 37.721 1.32 1.32 0 0 1 63.735 36.579C63.735 36.109 63.985 35.682 64.404 35.437A1.645 1.645 0 0 0 64.404 32.603 1.32 1.32 0 0 1 63.735 31.461C63.735 30.768 64.261 30.204 64.961 30.146L65.508 30.15V30.142H66.366A2.9 2.9 0 0 0 66.042 31.461C66.042 32.556 66.641 33.503 67.523 34.02A2.96 2.96 0 0 0 66.042 36.579C66.042 37.675 66.641 38.621 67.523 39.138A2.96 2.96 0 0 0 66.045 41.656H66.04L66.042 41.676 66.04 41.697C66.04 41.731 66.049 41.763 66.05 41.797 66.055 41.908 66.064 42.018 66.082 42.125 66.098 42.234 66.12 42.339 66.148 42.443L66.149 42.446C66.349 43.205 66.84 43.837 67.499 44.228A2.96 2.96 0 0 0 66.041 46.772C66.041 47.868 66.64 48.814 67.522 49.331A2.96 2.96 0 0 0 66.041 51.89 2.966 2.966 0 0 0 68.779 54.841L69.095 54.832H69.621A0.46 0.46 0 0 0 70.079 54.374V53.648A0.46 0.46 0 0 0 69.621 53.19H69.092L69.078 53.192C69.026 53.196 68.895 53.203 68.904 53.204A1.32 1.32 0 0 1 67.682 51.89C67.682 51.42 67.932 50.993 68.352 50.748A1.642 1.642 0 0 0 68.351 47.915 1.32 1.32 0 0 1 67.682 46.773C67.682 46.303 67.932 45.876 68.351 45.631A1.643 1.643 0 0 0 68.351 42.797 1.32 1.32 0 0 1 67.685 41.676C67.692 41.215 67.939 40.796 68.352 40.554A1.642 1.642 0 0 0 68.351 37.721 1.32 1.32 0 0 1 67.682 36.579C67.682 36.109 67.932 35.682 68.351 35.437A1.643 1.643 0 0 0 68.351 32.603 1.32 1.32 0 0 1 67.682 31.461C67.682 30.768 68.208 30.204 68.908 30.146L69.455 30.15V30.142H70.313A2.9 2.9 0 0 0 69.989 31.461C69.989 32.556 70.588 33.503 71.47 34.02A2.96 2.96 0 0 0 69.989 36.579C69.989 37.675 70.588 38.621 71.47 39.138A2.96 2.96 0 0 0 69.992 41.656H69.989L69.991 41.676 69.989 41.697C69.989 41.731 69.997 41.763 69.999 41.797 70.004 41.908 70.013 42.018 70.031 42.125 70.047 42.234 70.069 42.339 70.097 42.443L70.098 42.446C70.298 43.205 70.789 43.837 71.448 44.228A2.96 2.96 0 0 0 69.99 46.772C69.99 47.868 70.589 48.814 71.471 49.331A2.96 2.96 0 0 0 69.99 51.89 2.966 2.966 0 0 0 72.728 54.841L73.044 54.832H73.57A0.46 0.46 0 0 0 74.028 54.374V53.648A0.46 0.46 0 0 0 73.57 53.19H73.041L73.027 53.192C72.975 53.196 72.844 53.203 72.853 53.204A1.32 1.32 0 0 1 71.631 51.89C71.631 51.42 71.881 50.993 72.301 50.748A1.642 1.642 0 0 0 72.3 47.915 1.32 1.32 0 0 1 71.631 46.773C71.631 46.303 71.881 45.876 72.3 45.631A1.643 1.643 0 0 0 72.3 42.797 1.32 1.32 0 0 1 71.634 41.676C71.641 41.215 71.888 40.796 72.301 40.554A1.642 1.642 0 0 0 72.3 37.721 1.32 1.32 0 0 1 71.631 36.579C71.631 36.109 71.881 35.682 72.3 35.437A1.643 1.643 0 0 0 72.3 32.603 1.32 1.32 0 0 1 71.631 31.461C71.631 30.768 72.158 30.204 72.857 30.146L73.404 30.15V30.142H73.58A0.46 0.46 0 0 0 74.038 29.684V28.966A0.46 0.46 0 0 0 73.58 28.508H57.046L57.036 28.509H56.933C56.893 28.512 56.856 28.525 56.817 28.53A0.45 0.45 0 0 0 56.624 28.484H25.088A0.46 0.46 0 0 0 24.631 28.942V29.653A0.46 0.46 0 0 0 25.088 30.109M88.947 56.717H49.926C50.11 56.842 50.28 56.981 50.446 57.125 50.476 57.152 50.511 57.174 50.541 57.201A5 5 0 0 1 50.992 57.673C51.018 57.704 51.049 57.73 51.075 57.762 51.217 57.935 51.346 58.125 51.469 58.321 51.489 58.351 51.512 58.377 51.531 58.409 51.67 58.639 51.795 58.884 51.907 59.146H51.943C52.259 59.146 52.563 59.158 52.859 59.177 52.962 59.184 53.06 59.194 53.16 59.203 53.35 59.22 53.537 59.24 53.718 59.264A10 10 0 0 1 54.548 59.414C54.643 59.435 54.74 59.455 54.832 59.479 55.078 59.543 55.318 59.613 55.545 59.696H82.304C80.781 61.455 79.238 64.218 78.217 68.51 77.066 73.365 75.627 76.288 74.026 77.903 72.43 79.504 70.659 80.051 68.112 80.07H63.958C64.876 79.178 65.755 78.048 66.524 76.621 67.513 74.783 69.064 73.787 70.437 73.228A9.4 9.4 0 0 1 72.093 72.726H74.572A0.46 0.46 0 0 0 75.03 72.268V70.206A0.46 0.46 0 0 0 74.572 69.749H68.525C67.972 68.281 67.057 67.074 65.807 66.275 64.27 65.283 62.371 64.896 60.195 64.895H60.014C59.383 64.895 58.78 64.93 58.204 65.001 57.638 63.632 56.739 62.51 55.545 61.754 54.214 60.905 52.614 60.504 50.797 60.414A6.73 6.73 0 0 0 48.02 57.763C46.595 57.028 44.915 56.732 43.013 56.732H42.832C40.684 56.732 38.799 57.113 37.281 58.074 36.826 58.033 36.357 58.014 35.871 58.014H35.691C33.131 58.012 30.927 58.559 29.3 59.981 27.941 61.17 27.144 62.865 26.83 64.925 24.998 65.035 23.389 65.468 22.064 66.37 20.879 67.169 20.012 68.336 19.479 69.75H12.511A0.46 0.46 0 0 0 12.052 70.207V72.269C12.052 72.522 12.258 72.727 12.511 72.727H14.992C16.354 73.011 19.146 73.935 20.556 76.622 23.144 81.43 26.983 82.934 29.382 82.929H57.711C58.05 82.929 58.419 82.895 58.807 82.83H68.22C71.133 82.83 73.863 82.031 75.996 79.835 78.151 77.626 79.683 74.238 80.901 69.149 82.039 64.381 83.77 61.986 85.102 60.763 85.73 60.188 86.271 59.874 86.655 59.696H88.946A0.46 0.46 0 0 0 89.404 59.238V57.176A0.46 0.46 0 0 0 88.947 56.717M23.62 68.644C24.531 68.018 25.899 67.651 27.817 67.652H27.975C27.987 67.652 28.021 67.654 28.075 67.654A1.38 1.38 0 0 0 29.451 66.359C29.594 64.147 30.205 62.857 31.12 62.052 32.036 61.243 33.493 60.771 35.693 60.769H35.873C36.449 60.769 36.978 60.802 37.46 60.866 37.821 60.914 38.185 60.817 38.475 60.598 39.391 59.898 40.799 59.488 42.833 59.488H43.014C44.631 59.486 45.869 59.75 46.753 60.211 47.638 60.679 48.226 61.303 48.669 62.313 48.886 62.822 49.383 63.151 49.937 63.151H49.974C51.814 63.149 53.153 63.49 54.057 64.075 54.958 64.664 55.559 65.488 55.933 66.907A1.38 1.38 0 0 0 57.588 67.907C58.28 67.742 59.085 67.653 60.015 67.653H60.196C62.054 67.651 63.4 67.997 64.309 68.588 64.771 68.895 65.154 69.266 65.468 69.748H22.548A3.9 3.9 0 0 1 23.62 68.644M57.699 80.169H29.382C28.058 80.164 25.132 79.298 22.984 75.313A10.2 10.2 0 0 0 20.956 72.728L20.961 72.725H66.124A10.2 10.2 0 0 0 64.094 75.312C61.949 79.298 59.022 80.163 57.699 80.169" fill="#ed2647" data-fill-palette-color="accent"></path></g></g></svg></g></svg></g></svg></g><defs></defs></svg><rect width="395.52" height="135.55797525245546" fill="none" stroke="none" visibility="hidden"></rect></g></svg></g></svg>